<svg xmlns="http://www.w3.org/2000/svg" width="420mm" height="297.5mm" viewBox="0 0 1200 850"><rect width="1200" height="850" fill="white"/><text x="42" y="42" font-family="Helvetica,Arial,sans-serif" font-size="12" fill="#587085" font-weight="normal" text-anchor="start">BRICK PORTRAIT / PUBLIC TEMPLATE / 5-COURSE BASE / DIGITAL PROTOTYPE</text><text x="42" y="79" font-family="Helvetica,Arial,sans-serif" font-size="27" fill="#142c41" font-weight="bold" text-anchor="start">NP3-LOGO-C</text><text x="42" y="107" font-family="Helvetica,Arial,sans-serif" font-size="13" fill="#587085" font-weight="normal" text-anchor="start">Three orthographic views + underside from the actual solid. Exterior heights include studs / text.</text><line x1="42" y1="127" x2="1158" y2="127" stroke="#c5d3df" stroke-width="1"/><text x="95" y="171" font-family="Helvetica,Arial,sans-serif" font-size="13" fill="#142c41" font-weight="bold" text-anchor="start">FRONT</text><g transform="translate(110.0,440) scale(6.0) "><g data-coordinate-system="screen" ><g transform="translate(24.0,-1.6333333333333302)"><g fill="none" stroke="#142c41" stroke-opacity="1" stroke-width="0.18" stroke-linecap="butt" stroke-linejoin="miter" stroke-miterlimit="4">
<path d=" M 5.14286 -1.8 L 5.25714 -1.8 " />
<path d=" M 12.7905 -1.8 L 12.8 -1.8 " />
<path d=" M 12.8 -1 L 12.8 -1.8 " />
<path d=" M 12.7714 -1.8 L 12.7905 -1.8 " />
<path d=" M 12.7905 -1 L 12.7905 -1.8 " />
<path d=" M 12.7333 -1.8 L 12.7714 -1.8 " />
<path d=" M 12.7714 -1 L 12.7714 -1.8 " />
<path d=" M 12.6667 -1.8 L 12.7333 -1.8 " />
<path d=" M 12.7333 -1 L 12.7333 -1.8 " />
<path d=" M 12.581 -1.8 L 12.6667 -1.8 " />
<path d=" M 12.6667 -1 L 12.6667 -1.8 " />
<path d=" M 12.4571 -1.8 L 12.581 -1.8 " />
<path d=" M 12.581 -1 L 12.581 -1.8 " />
<path d=" M 12.3143 -1.8 L 12.4571 -1.8 " />
<path d=" M 12.4571 -1 L 12.4571 -1.8 " />
<path d=" M 12.1333 -1.8 L 12.3143 -1.8 " />
<path d=" M 12.3143 -1 L 12.3143 -1.8 " />
<path d=" M 11.9143 -1.8 L 12.1333 -1.8 " />
<path d=" M 12.1333 -1 L 12.1333 -1.8 " />
<path d=" M 11.6571 -1.8 L 11.9143 -1.8 " />
<path d=" M 11.9143 -1 L 11.9143 -1.8 " />
<path d=" M 11.1524 -1.8 L 11.6571 -1.8 " />
<path d=" M 11.6571 -1 L 11.6571 -1.8 " />
<path d=" M 10.5524 -1.8 L 11.1524 -1.8 " />
<path d=" M 11.1524 -1 L 11.1524 -1.8 " />
<path d=" M 9.84762 -1.8 L 10.5524 -1.8 " />
<path d=" M 10.5524 -1 L 10.5524 -1.8 " />
<path d=" M 9.04762 -1.8 L 9.84762 -1.8 " />
<path d=" M 9.84762 -1 L 9.84762 -1.8 " />
<path d=" M 8.14286 -1.8 L 9.04762 -1.8 " />
<path d=" M 9.04762 -1 L 9.04762 -1.8 " />
<path d=" M 7.14286 -1.8 L 8.14286 -1.8 " />
<path d=" M 8.14286 -1 L 8.14286 -1.8 " />
<path d=" M 6.04762 -1.8 L 7.14286 -1.8 " />
<path d=" M 7.14286 -1 L 7.14286 -1.8 " />
<path d=" M 4.88572 -1.8 L 6.04762 -1.8 " />
<path d=" M 6.04762 -1 L 6.04762 -1.8 " />
<path d=" M 4.52381 -1.8 L 4.71428 -1.8 " />
<path d=" M 5.25714 -1.8 L 5.26667 -1.8 " />
<path d=" M 5.26667 -1 L 5.26667 -1.8 " />
<path d=" M 5.25714 -1 L 5.25714 -1.8 " />
<path d=" M 5.0381 -1.8 L 5.14286 -1.8 " />
<path d=" M 5.14286 -1 L 5.14286 -1.8 " />
<path d=" M 4.88572 -1.8 L 5.0381 -1.8 " />
<path d=" M 5.0381 -1 L 5.0381 -1.8 " />
<path d=" M 4.71428 -1.8 L 4.88572 -1.8 " />
<path d=" M 4.88572 -1 L 4.88572 -1.8 " />
<path d=" M 4.52381 -1.8 L 4.71428 -1.8 " />
<path d=" M 4.71428 -1 L 4.71428 -1.8 " />
<path d=" M 4.30476 -1.8 L 4.52381 -1.8 " />
<path d=" M 4.52381 -1 L 4.52381 -1.8 " />
<path d=" M 4.07619 -1.8 L 4.30476 -1.8 " />
<path d=" M 4.30476 -1 L 4.30476 -1.8 " />
<path d=" M 3.04762 -1.8 L 4.07619 -1.8 " />
<path d=" M 4.07619 -1 L 4.07619 -1.8 " />
<path d=" M 2.0381 -1.8 L 3.04762 -1.8 " />
<path d=" M 3.04762 -1 L 3.04762 -1.8 " />
<path d=" M 1.0381 -1.8 L 2.0381 -1.8 " />
<path d=" M 2.0381 -1 L 2.0381 -1.8 " />
<path d=" M 0.04762 -1.8 L 1.0381 -1.8 " />
<path d=" M 1.0381 -1 L 1.0381 -1.8 " />
<path d=" M -0.942856 -1.8 L 0.04762 -1.8 " />
<path d=" M 0.04762 -1 L 0.04762 -1.8 " />
<path d=" M -1.94286 -1.8 L -0.942856 -1.8 " />
<path d=" M -0.942856 -1 L -0.942856 -1.8 " />
<path d=" M -2.95238 -1.8 L -1.94286 -1.8 " />
<path d=" M -1.94286 -1 L -1.94286 -1.8 " />
<path d=" M -3.98095 -1.8 L -2.95238 -1.8 " />
<path d=" M -2.95238 -1 L -2.95238 -1.8 " />
<path d=" M -4.20952 -1.8 L -3.98095 -1.8 " />
<path d=" M -3.98095 -1 L -3.98095 -1.8 " />
<path d=" M -4.42857 -1.8 L -4.20952 -1.8 " />
<path d=" M -4.20952 -1 L -4.20952 -1.8 " />
<path d=" M -4.61905 -1.8 L -4.42857 -1.8 " />
<path d=" M -4.42857 -1 L -4.42857 -1.8 " />
<path d=" M -4.79048 -1.8 L -4.61905 -1.8 " />
<path d=" M -4.61905 -1 L -4.61905 -1.8 " />
<path d=" M -4.94286 -1.8 L -4.79048 -1.8 " />
<path d=" M -4.79048 -1 L -4.79048 -1.8 " />
<path d=" M -5.04762 -1.8 L -4.94286 -1.8 " />
<path d=" M -4.94286 -1 L -4.94286 -1.8 " />
<path d=" M -5.12381 -1.8 L -5.04762 -1.8 " />
<path d=" M -5.04762 -1 L -5.04762 -1.8 " />
<path d=" M -5.1619 -1.8 L -5.12381 -1.8 " />
<path d=" M -5.1619 -1 L -5.1619 -1.8 " />
<path d=" M -5.04762 -1.8 L -4.94286 -1.8 " />
<path d=" M -5.18095 -1.8 L -5.12381 -1.8 " />
<path d=" M -5.26667 -1.8 L -5.18095 -1.8 " />
<path d=" M -5.18095 -1 L -5.18095 -1.8 " />
<path d=" M -5.39048 -1.8 L -5.26667 -1.8 " />
<path d=" M -5.26667 -1 L -5.26667 -1.8 " />
<path d=" M -5.52381 -1.8 L -5.39048 -1.8 " />
<path d=" M -5.39048 -1 L -5.39048 -1.8 " />
<path d=" M -5.68572 -1.8 L -5.52381 -1.8 " />
<path d=" M -5.52381 -1 L -5.52381 -1.8 " />
<path d=" M -5.84762 -1.8 L -5.68572 -1.8 " />
<path d=" M -5.68572 -1 L -5.68572 -1.8 " />
<path d=" M -6.02857 -1.8 L -5.84762 -1.8 " />
<path d=" M -5.84762 -1 L -5.84762 -1.8 " />
<path d=" M -6.2 -1.8 L -6.02857 -1.8 " />
<path d=" M -6.02857 -1 L -6.02857 -1.8 " />
<path d=" M -6.95238 -1.8 L -6.2 -1.8 " />
<path d=" M -6.2 -1 L -6.2 -1.8 " />
<path d=" M -7.67619 -1.8 L -6.95238 -1.8 " />
<path d=" M -6.95238 -1 L -6.95238 -1.8 " />
<path d=" M -8.3619 -1.8 L -7.67619 -1.8 " />
<path d=" M -7.67619 -1 L -7.67619 -1.8 " />
<path d=" M -9.01905 -1.8 L -8.3619 -1.8 " />
<path d=" M -8.3619 -1 L -8.3619 -1.8 " />
<path d=" M -9.61905 -1.8 L -9.01905 -1.8 " />
<path d=" M -9.01905 -1 L -9.01905 -1.8 " />
<path d=" M -10.1619 -1.8 L -9.61905 -1.8 " />
<path d=" M -9.61905 -1 L -9.61905 -1.8 " />
<path d=" M -10.6381 -1.8 L -10.1619 -1.8 " />
<path d=" M -10.1619 -1 L -10.1619 -1.8 " />
<path d=" M -11.0381 -1.8 L -10.6381 -1.8 " />
<path d=" M -10.6381 -1 L -10.6381 -1.8 " />
<path d=" M -11.1143 -1.8 L -11.0381 -1.8 " />
<path d=" M -11.0381 -1 L -11.0381 -1.8 " />
<path d=" M -11.2 -1.8 L -11.1143 -1.8 " />
<path d=" M -11.1143 -1 L -11.1143 -1.8 " />
<path d=" M -11.3048 -1.8 L -11.2 -1.8 " />
<path d=" M -11.2 -1 L -11.2 -1.8 " />
<path d=" M -11.419 -1.8 L -11.3048 -1.8 " />
<path d=" M -11.3048 -1 L -11.3048 -1.8 " />
<path d=" M -11.5333 -1.8 L -11.419 -1.8 " />
<path d=" M -11.419 -1 L -11.419 -1.8 " />
<path d=" M -11.6571 -1.8 L -11.5333 -1.8 " />
<path d=" M -11.5333 -1 L -11.5333 -1.8 " />
<path d=" M -11.7714 -1.8 L -11.6571 -1.8 " />
<path d=" M -11.6571 -1 L -11.6571 -1.8 " />
<path d=" M -11.8857 -1.8 L -11.7714 -1.8 " />
<path d=" M -11.7714 -1 L -11.7714 -1.8 " />
<path d=" M -12.1048 -1.8 L -11.8857 -1.8 " />
<path d=" M -11.8857 -1 L -11.8857 -1.8 " />
<path d=" M -12.3333 -1.8 L -12.1048 -1.8 " />
<path d=" M -12.1048 -1 L -12.1048 -1.8 " />
<path d=" M -12.5714 -1.8 L -12.3333 -1.8 " />
<path d=" M -12.3333 -1 L -12.3333 -1.8 " />
<path d=" M -12.8286 -1.8 L -12.5714 -1.8 " />
<path d=" M -12.5714 -1 L -12.5714 -1.8 " />
<path d=" M -13.1048 -1.8 L -12.8286 -1.8 " />
<path d=" M -12.8286 -1 L -12.8286 -1.8 " />
<path d=" M -13.4095 -1.8 L -13.1048 -1.8 " />
<path d=" M -13.1048 -1 L -13.1048 -1.8 " />
<path d=" M -13.7333 -1.8 L -13.4095 -1.8 " />
<path d=" M -13.4095 -1 L -13.4095 -1.8 " />
<path d=" M -14.0952 -1.8 L -13.7333 -1.8 " />
<path d=" M -13.7333 -1 L -13.7333 -1.8 " />
<path d=" M -14.2095 -1.8 L -14.0952 -1.8 " />
<path d=" M -14.0952 -1 L -14.0952 -1.8 " />
<path d=" M -14.3143 -1.8 L -14.2095 -1.8 " />
<path d=" M -14.2095 -1 L -14.2095 -1.8 " />
<path d=" M -14.4 -1.8 L -14.3143 -1.8 " />
<path d=" M -14.3143 -1 L -14.3143 -1.8 " />
<path d=" M -14.4667 -1.8 L -14.4 -1.8 " />
<path d=" M -14.4 -1 L -14.4 -1.8 " />
<path d=" M -14.5238 -1.8 L -14.4667 -1.8 " />
<path d=" M -14.4667 -1 L -14.4667 -1.8 " />
<path d=" M -14.5619 -1.8 L -14.5238 -1.8 " />
<path d=" M -14.5238 -1 L -14.5238 -1.8 " />
<path d=" M -14.5905 -1.8 L -14.5619 -1.8 " />
<path d=" M -14.5619 -1 L -14.5619 -1.8 " />
<path d=" M -14.6 -1.8 L -14.5905 -1.8 " />
<path d=" M -14.5905 -1 L -14.5905 -1.8 " />
<path d=" M -14.6095 -1.8 L -14.6 -1.8 " />
<path d=" M -14.6 -1 L -14.6 -1.8 " />
<path d=" M -14.6095 -1 L -14.6095 -1.8 " />
<path d=" M -5.52381 -1.8 L -4.79048 -1.8 " />
<path d=" M -6.2 -1.8 L -5.68572 -1.8 " />
<path d=" M -11.0381 -1.8 L -10.6381 -1.8 " />
<path d=" M -11.419 -1.8 L -11.1143 -1.8 " />
<path d=" M -11.7714 -1.8 L -11.5333 -1.8 " />
<path d=" M -12.1048 -1.8 L -11.8857 -1.8 " />
<path d=" M 19.9335 -1 L 20 -1 " />
<path d=" M 19.7342 -1 L 19.9335 -1 " />
<path d=" M 19.4037 -1 L 19.7342 -1 " />
<path d=" M 18.9441 -1 L 19.4037 -1 " />
<path d=" M 18.3583 -1 L 18.9441 -1 " />
<path d=" M 17.6504 -1 L 18.3583 -1 " />
<path d=" M 16.8251 -1 L 17.6504 -1 " />
<path d=" M 15.8877 -1 L 16.8251 -1 " />
<path d=" M 14.8447 -1 L 15.8877 -1 " />
<path d=" M 13.7028 -1 L 14.8447 -1 " />
<path d=" M 12.4698 -1 L 13.7028 -1 " />
<path d=" M 11.1538 -1 L 12.4698 -1 " />
<path d=" M 9.76352 -1 L 11.1538 -1 " />
<path d=" M 8.3083 -1 L 9.76352 -1 " />
<path d=" M 6.79779 -1 L 8.3083 -1 " />
<path d=" M 5.24203 -1 L 6.79779 -1 " />
<path d=" M 3.6514 -1 L 5.24203 -1 " />
<path d=" M 2.03646 -1 L 3.6514 -1 " />
<path d=" M 0.407971 -1 L 2.03646 -1 " />
<path d=" M -1.22323 -1 L 0.407971 -1 " />
<path d=" M -2.8463 -1 L -1.22323 -1 " />
<path d=" M -4.45042 -1 L -2.8463 -1 " />
<path d=" M -6.02492 -1 L -4.45042 -1 " />
<path d=" M -7.55933 -1 L -6.02492 -1 " />
<path d=" M -9.04344 -1 L -7.55933 -1 " />
<path d=" M -10.4674 -1 L -9.04344 -1 " />
<path d=" M -11.8216 -1 L -10.4674 -1 " />
<path d=" M -13.0972 -1 L -11.8216 -1 " />
<path d=" M -14.2856 -1 L -13.0972 -1 " />
<path d=" M -15.379 -1 L -14.2856 -1 " />
<path d=" M -16.37 -1 L -15.379 -1 " />
<path d=" M -17.2521 -1 L -16.37 -1 " />
<path d=" M -18.0194 -1 L -17.2521 -1 " />
<path d=" M -18.6667 -1 L -18.0194 -1 " />
<path d=" M -19.1899 -1 L -18.6667 -1 " />
<path d=" M -19.5853 -1 L -19.1899 -1 " />
<path d=" M -19.8504 -1 L -19.5853 -1 " />
<path d=" M -19.9834 -1 L -19.8504 -1 " />
<path d=" M -20 -1 L -19.9834 -1 " />
<path d=" M 20 -0.6 L 20 -1 " />
<path d=" M -23.3333 1 L -22 -0.6 " />
<path d=" M -4.01457e-13 -0.6 L 22 -0.6 " />
<path d=" M -22 -0.6 L -4.01457e-13 -0.6 " />
<path d=" M 23.3333 1 L 22 -0.6 " />
<path d=" M -24 1.8 L -23.3333 1 " />
<path d=" M -23.3333 1 L 23.3333 1 " />
<path d=" M 24 1.8 L 23.3333 1 " />
<path d=" M -24 1.8 L 24 1.8 " />
<path d=" M -20 -0.85036 L -20 -0.6 " />
<path d=" M -20 -0.85036 L -20 -1 " />
</g>
</g></g></g><line x1="110" y1="475" x2="398.0" y2="475" stroke="#2952a6" stroke-width="1"/><line x1="110" y1="470" x2="110" y2="480" stroke="#2952a6" stroke-width="1"/><line x1="398.0" y1="470" x2="398.0" y2="480" stroke="#2952a6" stroke-width="1"/><text x="254.0" y="466" font-family="Helvetica,Arial,sans-serif" font-size="14" fill="#2952a6" font-weight="normal" text-anchor="middle">48.00</text><line x1="78" y1="418.4" x2="78" y2="440" stroke="#2952a6" stroke-width="1"/><line x1="73" y1="418.4" x2="83" y2="418.4" stroke="#2952a6" stroke-width="1"/><line x1="73" y1="440" x2="83" y2="440" stroke="#2952a6" stroke-width="1"/><text x="70" y="429.2" font-family="Helvetica,Arial,sans-serif" font-size="13" fill="#2952a6" font-weight="normal" text-anchor="end">3.60</text><text x="570" y="171" font-family="Helvetica,Arial,sans-serif" font-size="13" fill="#142c41" font-weight="bold" text-anchor="start">SIDE</text><g transform="translate(585.0,440) scale(6.0) "><g data-coordinate-system="screen" ><g transform="translate(20.0,-1.6333333333333302)"><g fill="none" stroke="#142c41" stroke-opacity="1" stroke-width="0.18" stroke-linecap="butt" stroke-linejoin="miter" stroke-miterlimit="4">
<path d=" M -19.1905 -1.8 L -19.1143 -1.8 " />
<path d=" M -19.2857 -1.8 L -19.2571 -1.8 " />
<path d=" M 11.6 -1.8 L 11.6667 -1.8 " />
<path d=" M 11.6667 -1 L 11.6667 -1.8 " />
<path d=" M 9.8 -1.8 L 10.1524 -1.8 " />
<path d=" M 11.6286 -1.8 L 11.6381 -1.8 " />
<path d=" M 11.6381 -1 L 11.6381 -1.8 " />
<path d=" M 11.6 -1.8 L 11.6286 -1.8 " />
<path d=" M 11.6286 -1 L 11.6286 -1.8 " />
<path d=" M 11.5143 -1.8 L 11.6 -1.8 " />
<path d=" M 11.6 -1 L 11.6 -1.8 " />
<path d=" M 11.3429 -1.8 L 11.5143 -1.8 " />
<path d=" M 11.5143 -1 L 11.5143 -1.8 " />
<path d=" M 11.1048 -1.8 L 11.3429 -1.8 " />
<path d=" M 11.3429 -1 L 11.3429 -1.8 " />
<path d=" M 10.819 -1.8 L 11.1048 -1.8 " />
<path d=" M 11.1048 -1 L 11.1048 -1.8 " />
<path d=" M 10.4952 -1.8 L 10.819 -1.8 " />
<path d=" M 10.819 -1 L 10.819 -1.8 " />
<path d=" M 10.1524 -1.8 L 10.4952 -1.8 " />
<path d=" M 10.4952 -1 L 10.4952 -1.8 " />
<path d=" M 9.8 -1.8 L 10.1524 -1.8 " />
<path d=" M 10.1524 -1 L 10.1524 -1.8 " />
<path d=" M 9.45714 -1.8 L 9.8 -1.8 " />
<path d=" M 9.8 -1 L 9.8 -1.8 " />
<path d=" M 9.14286 -1.8 L 9.45714 -1.8 " />
<path d=" M 9.45714 -1 L 9.45714 -1.8 " />
<path d=" M 8.81905 -1.8 L 9.14286 -1.8 " />
<path d=" M 9.14286 -1 L 9.14286 -1.8 " />
<path d=" M 8.50476 -1.8 L 8.81905 -1.8 " />
<path d=" M 8.81905 -1 L 8.81905 -1.8 " />
<path d=" M 8.18095 -1.8 L 8.50476 -1.8 " />
<path d=" M 8.50476 -1 L 8.50476 -1.8 " />
<path d=" M 7.85714 -1.8 L 8.18095 -1.8 " />
<path d=" M 8.18095 -1 L 8.18095 -1.8 " />
<path d=" M 7.52381 -1.8 L 7.85714 -1.8 " />
<path d=" M 7.85714 -1 L 7.85714 -1.8 " />
<path d=" M 7.19048 -1.8 L 7.52381 -1.8 " />
<path d=" M 7.52381 -1 L 7.52381 -1.8 " />
<path d=" M 6.84762 -1.8 L 7.19048 -1.8 " />
<path d=" M 7.19048 -1 L 7.19048 -1.8 " />
<path d=" M 6.26667 -1.8 L 6.84762 -1.8 " />
<path d=" M 6.84762 -1 L 6.84762 -1.8 " />
<path d=" M 5.65714 -1.8 L 6.26667 -1.8 " />
<path d=" M 6.26667 -1 L 6.26667 -1.8 " />
<path d=" M 5.32381 -1.8 L 5.65714 -1.8 " />
<path d=" M 5.65714 -1 L 5.65714 -1.8 " />
<path d=" M 4.97143 -1.8 L 5.32381 -1.8 " />
<path d=" M 5.32381 -1 L 5.32381 -1.8 " />
<path d=" M 4.59048 -1.8 L 4.97143 -1.8 " />
<path d=" M 4.97143 -1 L 4.97143 -1.8 " />
<path d=" M 4.2 -1.8 L 4.59048 -1.8 " />
<path d=" M 4.59048 -1 L 4.59048 -1.8 " />
<path d=" M 3.8 -1.8 L 4.2 -1.8 " />
<path d=" M 4.2 -1 L 4.2 -1.8 " />
<path d=" M 3.39048 -1.8 L 3.8 -1.8 " />
<path d=" M 3.8 -1 L 3.8 -1.8 " />
<path d=" M 2.97143 -1.8 L 3.39048 -1.8 " />
<path d=" M 3.39048 -1 L 3.39048 -1.8 " />
<path d=" M 2.55238 -1.8 L 2.97143 -1.8 " />
<path d=" M 2.97143 -1 L 2.97143 -1.8 " />
<path d=" M 2.27619 -1.8 L 2.55238 -1.8 " />
<path d=" M 2.55238 -1 L 2.55238 -1.8 " />
<path d=" M 2.01905 -1.8 L 2.27619 -1.8 " />
<path d=" M 2.27619 -1 L 2.27619 -1.8 " />
<path d=" M 1.78095 -1.8 L 2.01905 -1.8 " />
<path d=" M 2.01905 -1 L 2.01905 -1.8 " />
<path d=" M 1.53333 -1.8 L 1.78095 -1.8 " />
<path d=" M 1.78095 -1 L 1.78095 -1.8 " />
<path d=" M 1.26667 -1.8 L 1.53333 -1.8 " />
<path d=" M 1.53333 -1 L 1.53333 -1.8 " />
<path d=" M 0.961904 -1.8 L 1.26667 -1.8 " />
<path d=" M 1.26667 -1 L 1.26667 -1.8 " />
<path d=" M 0.609524 -1.8 L 0.961904 -1.8 " />
<path d=" M 0.961904 -1 L 0.961904 -1.8 " />
<path d=" M 0.190476 -1.8 L 0.609524 -1.8 " />
<path d=" M 0.609524 -1 L 0.609524 -1.8 " />
<path d=" M -0.561904 -1.8 L 0.190476 -1.8 " />
<path d=" M 0.190476 -1 L 0.190476 -1.8 " />
<path d=" M -1.2381 -1.8 L -0.561904 -1.8 " />
<path d=" M -0.561904 -1 L -0.561904 -1.8 " />
<path d=" M -1.87619 -1.8 L -1.2381 -1.8 " />
<path d=" M -1.2381 -1 L -1.2381 -1.8 " />
<path d=" M -2.46667 -1.8 L -1.87619 -1.8 " />
<path d=" M -1.87619 -1 L -1.87619 -1.8 " />
<path d=" M -3.01905 -1.8 L -2.46667 -1.8 " />
<path d=" M -2.46667 -1 L -2.46667 -1.8 " />
<path d=" M -3.5619 -1.8 L -3.01905 -1.8 " />
<path d=" M -3.01905 -1 L -3.01905 -1.8 " />
<path d=" M -4.08572 -1.8 L -3.5619 -1.8 " />
<path d=" M -3.5619 -1 L -3.5619 -1.8 " />
<path d=" M -4.61905 -1.8 L -4.08572 -1.8 " />
<path d=" M -4.08572 -1 L -4.08572 -1.8 " />
<path d=" M -5.44762 -1.8 L -4.61905 -1.8 " />
<path d=" M -4.61905 -1 L -4.61905 -1.8 " />
<path d=" M -6.19048 -1.8 L -5.44762 -1.8 " />
<path d=" M -5.44762 -1 L -5.44762 -1.8 " />
<path d=" M -6.85714 -1.8 L -6.19048 -1.8 " />
<path d=" M -6.19048 -1 L -6.19048 -1.8 " />
<path d=" M -7.4381 -1.8 L -6.85714 -1.8 " />
<path d=" M -6.85714 -1 L -6.85714 -1.8 " />
<path d=" M -7.93333 -1.8 L -7.4381 -1.8 " />
<path d=" M -7.4381 -1 L -7.4381 -1.8 " />
<path d=" M -8.34286 -1.8 L -7.93333 -1.8 " />
<path d=" M -7.93333 -1 L -7.93333 -1.8 " />
<path d=" M -8.66667 -1.8 L -8.34286 -1.8 " />
<path d=" M -8.34286 -1 L -8.34286 -1.8 " />
<path d=" M -8.90476 -1.8 L -8.66667 -1.8 " />
<path d=" M -8.66667 -1 L -8.66667 -1.8 " />
<path d=" M -8.97143 -1.8 L -8.90476 -1.8 " />
<path d=" M -8.90476 -1 L -8.90476 -1.8 " />
<path d=" M -9.01905 -1.8 L -8.97143 -1.8 " />
<path d=" M -8.97143 -1 L -8.97143 -1.8 " />
<path d=" M -9.05714 -1.8 L -9.01905 -1.8 " />
<path d=" M -9.01905 -1 L -9.01905 -1.8 " />
<path d=" M -9.11428 -1.8 L -9.05714 -1.8 " />
<path d=" M -9.05714 -1 L -9.05714 -1.8 " />
<path d=" M -9.19048 -1.8 L -9.11428 -1.8 " />
<path d=" M -9.11428 -1 L -9.11428 -1.8 " />
<path d=" M -9.29524 -1.8 L -9.19048 -1.8 " />
<path d=" M -9.19048 -1 L -9.19048 -1.8 " />
<path d=" M -9.4381 -1.8 L -9.29524 -1.8 " />
<path d=" M -9.29524 -1 L -9.29524 -1.8 " />
<path d=" M -9.6381 -1.8 L -9.4381 -1.8 " />
<path d=" M -9.4381 -1 L -9.4381 -1.8 " />
<path d=" M -10.0095 -1.8 L -9.6381 -1.8 " />
<path d=" M -9.6381 -1 L -9.6381 -1.8 " />
<path d=" M -10.3524 -1.8 L -10.0095 -1.8 " />
<path d=" M -10.0095 -1 L -10.0095 -1.8 " />
<path d=" M -10.7333 -1.8 L -10.3524 -1.8 " />
<path d=" M -10.3524 -1 L -10.3524 -1.8 " />
<path d=" M -11.2095 -1.8 L -10.7333 -1.8 " />
<path d=" M -10.7333 -1 L -10.7333 -1.8 " />
<path d=" M -11.819 -1.8 L -11.2095 -1.8 " />
<path d=" M -11.2095 -1 L -11.2095 -1.8 " />
<path d=" M -12.6381 -1.8 L -11.819 -1.8 " />
<path d=" M -11.819 -1 L -11.819 -1.8 " />
<path d=" M -13.7143 -1.8 L -12.6381 -1.8 " />
<path d=" M -12.6381 -1 L -12.6381 -1.8 " />
<path d=" M -15.0952 -1.8 L -13.7143 -1.8 " />
<path d=" M -13.7143 -1 L -13.7143 -1.8 " />
<path d=" M -16.0571 -1.8 L -15.0952 -1.8 " />
<path d=" M -15.0952 -1 L -15.0952 -1.8 " />
<path d=" M -16.8571 -1.8 L -16.0571 -1.8 " />
<path d=" M -16.0571 -1 L -16.0571 -1.8 " />
<path d=" M -17.5143 -1.8 L -16.8571 -1.8 " />
<path d=" M -16.8571 -1 L -16.8571 -1.8 " />
<path d=" M -18.0286 -1.8 L -17.5143 -1.8 " />
<path d=" M -17.5143 -1 L -17.5143 -1.8 " />
<path d=" M -18.419 -1.8 L -18.0286 -1.8 " />
<path d=" M -18.0286 -1 L -18.0286 -1.8 " />
<path d=" M -18.6952 -1.8 L -18.419 -1.8 " />
<path d=" M -18.419 -1 L -18.419 -1.8 " />
<path d=" M -18.8857 -1.8 L -18.6952 -1.8 " />
<path d=" M -18.6952 -1 L -18.6952 -1.8 " />
<path d=" M -18.981 -1.8 L -18.8857 -1.8 " />
<path d=" M -18.8857 -1 L -18.8857 -1.8 " />
<path d=" M -19.0286 -1.8 L -18.981 -1.8 " />
<path d=" M -18.981 -1 L -18.981 -1.8 " />
<path d=" M -19.0762 -1.8 L -19.0286 -1.8 " />
<path d=" M -19.0286 -1 L -19.0286 -1.8 " />
<path d=" M -19.1143 -1.8 L -19.0762 -1.8 " />
<path d=" M -19.0762 -1 L -19.0762 -1.8 " />
<path d=" M -19.1143 -1 L -19.1143 -1.8 " />
<path d=" M -19.219 -1.8 L -19.1905 -1.8 " />
<path d=" M -19.1905 -1 L -19.1905 -1.8 " />
<path d=" M -19.2381 -1.8 L -19.219 -1.8 " />
<path d=" M -19.219 -1 L -19.219 -1.8 " />
<path d=" M -19.2571 -1.8 L -19.2381 -1.8 " />
<path d=" M -19.2381 -1 L -19.2381 -1.8 " />
<path d=" M -19.2571 -1 L -19.2571 -1.8 " />
<path d=" M -19.3143 -1.8 L -19.2857 -1.8 " />
<path d=" M -19.2857 -1 L -19.2857 -1.8 " />
<path d=" M -19.3524 -1.8 L -19.3143 -1.8 " />
<path d=" M -19.3143 -1 L -19.3143 -1.8 " />
<path d=" M -19.3905 -1.8 L -19.3524 -1.8 " />
<path d=" M -19.3524 -1 L -19.3524 -1.8 " />
<path d=" M -19.4381 -1.8 L -19.3905 -1.8 " />
<path d=" M -19.3905 -1 L -19.3905 -1.8 " />
<path d=" M -19.4762 -1.8 L -19.4381 -1.8 " />
<path d=" M -19.4381 -1 L -19.4381 -1.8 " />
<path d=" M -19.5238 -1.8 L -19.4762 -1.8 " />
<path d=" M -19.4762 -1 L -19.4762 -1.8 " />
<path d=" M -19.7143 -1.8 L -19.5238 -1.8 " />
<path d=" M -19.5238 -1 L -19.5238 -1.8 " />
<path d=" M -19.8476 -1.8 L -19.7143 -1.8 " />
<path d=" M -19.7143 -1 L -19.7143 -1.8 " />
<path d=" M -19.9238 -1.8 L -19.8476 -1.8 " />
<path d=" M -19.8476 -1 L -19.8476 -1.8 " />
<path d=" M -19.9524 -1.8 L -19.9238 -1.8 " />
<path d=" M -19.9238 -1 L -19.9238 -1.8 " />
<path d=" M -19.9524 -1 L -19.9524 -1.8 " />
<path d=" M -9.05714 -1.8 L -8.90476 -1.8 " />
<path d=" M -9.4381 -1.8 L -9.11428 -1.8 " />
<path d=" M -1.63019 -1 L 0 -1 " />
<path d=" M -3.24952 -1 L -1.63019 -1 " />
<path d=" M -4.84723 -1 L -3.24952 -1 " />
<path d=" M -6.41269 -1 L -4.84723 -1 " />
<path d=" M -7.93547 -1 L -6.41269 -1 " />
<path d=" M -9.40544 -1 L -7.93547 -1 " />
<path d=" M -10.8128 -1 L -9.40544 -1 " />
<path d=" M -12.1482 -1 L -10.8128 -1 " />
<path d=" M -13.4028 -1 L -12.1482 -1 " />
<path d=" M -14.5682 -1 L -13.4028 -1 " />
<path d=" M -15.6366 -1 L -14.5682 -1 " />
<path d=" M -16.601 -1 L -15.6366 -1 " />
<path d=" M -17.4549 -1 L -16.601 -1 " />
<path d=" M -18.1926 -1 L -17.4549 -1 " />
<path d=" M -18.8093 -1 L -18.1926 -1 " />
<path d=" M -19.3008 -1 L -18.8093 -1 " />
<path d=" M -19.6639 -1 L -19.3008 -1 " />
<path d=" M -19.8961 -1 L -19.6639 -1 " />
<path d=" M -19.9958 -1 L -19.8961 -1 " />
<path d=" M -20 -1 L -19.9958 -1 " />
<path d=" M 19.9958 -1 L 20 -1 " />
<path d=" M 19.8961 -1 L 19.9958 -1 " />
<path d=" M 19.6639 -1 L 19.8961 -1 " />
<path d=" M 19.3008 -1 L 19.6639 -1 " />
<path d=" M 18.8093 -1 L 19.3008 -1 " />
<path d=" M 18.1926 -1 L 18.8093 -1 " />
<path d=" M 17.4549 -1 L 18.1926 -1 " />
<path d=" M 16.601 -1 L 17.4549 -1 " />
<path d=" M 15.6366 -1 L 16.601 -1 " />
<path d=" M 14.5682 -1 L 15.6366 -1 " />
<path d=" M 13.4028 -1 L 14.5682 -1 " />
<path d=" M 12.1482 -1 L 13.4028 -1 " />
<path d=" M 10.8128 -1 L 12.1482 -1 " />
<path d=" M 9.40544 -1 L 10.8128 -1 " />
<path d=" M 7.93547 -1 L 9.40544 -1 " />
<path d=" M 6.41269 -1 L 7.93547 -1 " />
<path d=" M 4.84723 -1 L 6.41269 -1 " />
<path d=" M 3.24952 -1 L 4.84723 -1 " />
<path d=" M 1.63019 -1 L 3.24952 -1 " />
<path d=" M 0 -1 L 1.63019 -1 " />
<path d=" M -20 -0.6 L 20 -0.6 " />
<path d=" M 18.8 1 L 20 -0.6 " />
<path d=" M -18.8 1 L -20 -0.6 " />
<path d=" M -18.8 1 L 18.8 1 " />
<path d=" M 18.8 1.8 L 18.8 1 " />
<path d=" M -18.8 1.8 L 18.8 1.8 " />
<path d=" M -18.8 1.8 L -18.8 1 " />
<path d=" M 20 -1 L 20 -0.6 " />
<path d=" M -20 -1 L -20 -0.6 " />
</g>
</g></g></g><line x1="585" y1="475" x2="825.0" y2="475" stroke="#2952a6" stroke-width="1"/><line x1="585" y1="470" x2="585" y2="480" stroke="#2952a6" stroke-width="1"/><line x1="825.0" y1="470" x2="825.0" y2="480" stroke="#2952a6" stroke-width="1"/><text x="705.0" y="466" font-family="Helvetica,Arial,sans-serif" font-size="14" fill="#2952a6" font-weight="normal" text-anchor="middle">40.00</text><text x="95" y="525" font-family="Helvetica,Arial,sans-serif" font-size="13" fill="#142c41" font-weight="bold" text-anchor="start">TOP / PRINT ORIENTATION</text><g transform="translate(110.0,772) scale(5.5) "><g data-coordinate-system="screen" ><g transform="translate(24.0,-20.0)"><g fill="none" stroke="#142c41" stroke-opacity="1" stroke-width="0.18" stroke-linecap="butt" stroke-linejoin="miter" stroke-miterlimit="4">
<path d=" M 2.91428 -9.95238 L 2.22857 -10.0476 " />
<path d=" M 5.25714 19.1905 L 5.2381 19.1143 " />
<path d=" M 5.14286 19.2857 L 5.25714 19.2571 " />
<path d=" M -5.1619 19.181 L -5.1619 19.2571 " />
<path d=" M -4.90476 14.6 L -4.90476 17.1714 " />
<path d=" M -13.6857 8.07619 L -13.8952 8.07619 " />
<path d=" M -3.70476 9.11428 L -3.70476 9.1619 " />
<path d=" M -10.1905 -11.6571 L -10.4095 -11.5524 " />
<path d=" M -9.81905 -11.6667 L -10.1905 -11.6571 " />
<path d=" M -9.33333 -11.5905 L -9.81905 -11.6667 " />
<path d=" M -8.74286 -11.4286 L -9.33333 -11.5905 " />
<path d=" M -8.07619 -11.2 L -8.74286 -11.4286 " />
<path d=" M -7.38095 -10.9048 L -8.07619 -11.2 " />
<path d=" M -6.66667 -10.5619 L -7.38095 -10.9048 " />
<path d=" M -5.9619 -10.1714 L -6.66667 -10.5619 " />
<path d=" M -4.95238 -9.5619 L -5.9619 -10.1714 " />
<path d=" M -3.90476 -9.7619 L -4.95238 -9.5619 " />
<path d=" M -3.68572 -9.8 L -3.90476 -9.7619 " />
<path d=" M -3.47619 -9.84762 L -3.68572 -9.8 " />
<path d=" M -3.27619 -9.88572 L -3.47619 -9.84762 " />
<path d=" M -3.09524 -9.91428 L -3.27619 -9.88572 " />
<path d=" M -2.92381 -9.95238 L -3.09524 -9.91428 " />
<path d=" M -2.79048 -9.97143 L -2.92381 -9.95238 " />
<path d=" M -2.67619 -10 L -2.79048 -9.97143 " />
<path d=" M -2.60952 -10.0095 L -2.67619 -10 " />
<path d=" M -2.29524 -10.0571 L -2.60952 -10.0095 " />
<path d=" M -1.86667 -10.0952 L -2.29524 -10.0571 " />
<path d=" M -1.37143 -10.1238 L -1.86667 -10.0952 " />
<path d=" M -0.819048 -10.1429 L -1.37143 -10.1238 " />
<path d=" M -0.24762 -10.1619 L -0.819048 -10.1429 " />
<path d=" M 0.323808 -10.1619 L -0.24762 -10.1619 " />
<path d=" M 0.84762 -10.1524 L 0.323808 -10.1619 " />
<path d=" M 1.31428 -10.1333 L 0.84762 -10.1524 " />
<path d=" M 1.59048 -10.1143 L 1.31428 -10.1333 " />
<path d=" M 1.89524 -10.0857 L 1.59048 -10.1143 " />
<path d=" M 2.22857 -10.0476 L 1.89524 -10.0857 " />
<path d=" M 3.24762 -9.90476 L 2.91428 -9.95238 " />
<path d=" M 3.55238 -9.85714 L 3.24762 -9.90476 " />
<path d=" M 3.8381 -9.8 L 3.55238 -9.85714 " />
<path d=" M 5.09524 -9.55238 L 3.8381 -9.8 " />
<path d=" M 5.69524 -9.93333 L 5.09524 -9.55238 " />
<path d=" M 6.04762 -10.1429 L 5.69524 -9.93333 " />
<path d=" M 6.42857 -10.3619 L 6.04762 -10.1429 " />
<path d=" M 6.82857 -10.5714 L 6.42857 -10.3619 " />
<path d=" M 7.22857 -10.7714 L 6.82857 -10.5714 " />
<path d=" M 7.61905 -10.9619 L 7.22857 -10.7714 " />
<path d=" M 8 -11.1238 L 7.61905 -10.9619 " />
<path d=" M 8.33333 -11.2571 L 8 -11.1238 " />
<path d=" M 8.6381 -11.3619 L 8.33333 -11.2571 " />
<path d=" M 8.91428 -11.4476 L 8.6381 -11.3619 " />
<path d=" M 9.20952 -11.5143 L 8.91428 -11.4476 " />
<path d=" M 9.49524 -11.5619 L 9.20952 -11.5143 " />
<path d=" M 9.77143 -11.6095 L 9.49524 -11.5619 " />
<path d=" M 10.019 -11.6286 L 9.77143 -11.6095 " />
<path d=" M 10.2381 -11.6381 L 10.019 -11.6286 " />
<path d=" M 10.3905 -11.6286 L 10.2381 -11.6381 " />
<path d=" M 10.4857 -11.6 L 10.3905 -11.6286 " />
<path d=" M 10.5619 -11.5143 L 10.4857 -11.6 " />
<path d=" M 10.6381 -11.3429 L 10.5619 -11.5143 " />
<path d=" M 10.7238 -11.1048 L 10.6381 -11.3429 " />
<path d=" M 10.8095 -10.819 L 10.7238 -11.1048 " />
<path d=" M 10.8952 -10.4952 L 10.8095 -10.819 " />
<path d=" M 10.9714 -10.1524 L 10.8952 -10.4952 " />
<path d=" M 11.0476 -9.8 L 10.9714 -10.1524 " />
<path d=" M 11.0952 -9.45714 L 11.0476 -9.8 " />
<path d=" M 11.1333 -9.14286 L 11.0952 -9.45714 " />
<path d=" M 11.1524 -8.81905 L 11.1333 -9.14286 " />
<path d=" M 11.1619 -8.50476 L 11.1524 -8.81905 " />
<path d=" M 11.1429 -8.18095 L 11.1619 -8.50476 " />
<path d=" M 11.1143 -7.85714 L 11.1429 -8.18095 " />
<path d=" M 11.0762 -7.52381 L 11.1143 -7.85714 " />
<path d=" M 11.0095 -7.19048 L 11.0762 -7.52381 " />
<path d=" M 10.9333 -6.84762 L 11.0095 -7.19048 " />
<path d=" M 10.7905 -6.26667 L 10.9333 -6.84762 " />
<path d=" M 11.2571 -5.65714 L 10.7905 -6.26667 " />
<path d=" M 11.4857 -5.32381 L 11.2571 -5.65714 " />
<path d=" M 11.7048 -4.97143 L 11.4857 -5.32381 " />
<path d=" M 11.9143 -4.59048 L 11.7048 -4.97143 " />
<path d=" M 12.0952 -4.2 L 11.9143 -4.59048 " />
<path d=" M 12.2667 -3.8 L 12.0952 -4.2 " />
<path d=" M 12.4095 -3.39048 L 12.2667 -3.8 " />
<path d=" M 12.5333 -2.97143 L 12.4095 -3.39048 " />
<path d=" M 12.6381 -2.55238 L 12.5333 -2.97143 " />
<path d=" M 12.6952 -2.27619 L 12.6381 -2.55238 " />
<path d=" M 12.7333 -2.01905 L 12.6952 -2.27619 " />
<path d=" M 12.7619 -1.78095 L 12.7333 -2.01905 " />
<path d=" M 12.781 -1.53333 L 12.7619 -1.78095 " />
<path d=" M 12.7905 -1.26667 L 12.781 -1.53333 " />
<path d=" M 12.8 -0.961904 L 12.7905 -1.26667 " />
<path d=" M 12.7905 -0.609524 L 12.8 -0.961904 " />
<path d=" M 12.7714 -0.190476 L 12.7905 -0.609524 " />
<path d=" M 12.7333 0.561904 L 12.7714 -0.190476 " />
<path d=" M 12.6667 1.2381 L 12.7333 0.561904 " />
<path d=" M 12.581 1.87619 L 12.6667 1.2381 " />
<path d=" M 12.4571 2.46667 L 12.581 1.87619 " />
<path d=" M 12.3143 3.01905 L 12.4571 2.46667 " />
<path d=" M 12.1333 3.5619 L 12.3143 3.01905 " />
<path d=" M 11.9143 4.08572 L 12.1333 3.5619 " />
<path d=" M 11.6571 4.61905 L 11.9143 4.08572 " />
<path d=" M 11.1524 5.44762 L 11.6571 4.61905 " />
<path d=" M 10.5524 6.19048 L 11.1524 5.44762 " />
<path d=" M 9.84762 6.85714 L 10.5524 6.19048 " />
<path d=" M 9.04762 7.4381 L 9.84762 6.85714 " />
<path d=" M 8.14286 7.93333 L 9.04762 7.4381 " />
<path d=" M 7.14286 8.34286 L 8.14286 7.93333 " />
<path d=" M 6.04762 8.66667 L 7.14286 8.34286 " />
<path d=" M 4.85714 8.90476 L 6.04762 8.66667 " />
<path d=" M 4.45714 8.97143 L 4.85714 8.90476 " />
<path d=" M 4.1619 9.01905 L 4.45714 8.97143 " />
<path d=" M 3.97143 9.05714 L 4.1619 9.01905 " />
<path d=" M 3.87619 9.11428 L 3.97143 9.05714 " />
<path d=" M 3.84762 9.19048 L 3.87619 9.11428 " />
<path d=" M 3.89524 9.29524 L 3.84762 9.19048 " />
<path d=" M 3.99048 9.4381 L 3.89524 9.29524 " />
<path d=" M 4.14286 9.6381 L 3.99048 9.4381 " />
<path d=" M 4.39048 10.0095 L 4.14286 9.6381 " />
<path d=" M 4.59048 10.3524 L 4.39048 10.0095 " />
<path d=" M 4.73333 10.7333 L 4.59048 10.3524 " />
<path d=" M 4.82857 11.2095 L 4.73333 10.7333 " />
<path d=" M 4.90476 11.819 L 4.82857 11.2095 " />
<path d=" M 4.94286 12.6381 L 4.90476 11.819 " />
<path d=" M 4.97143 13.7143 L 4.94286 12.6381 " />
<path d=" M 5 15.0952 L 4.97143 13.7143 " />
<path d=" M 5.00952 16.0571 L 5 15.0952 " />
<path d=" M 5.02857 16.8571 L 5.00952 16.0571 " />
<path d=" M 5.04762 17.5143 L 5.02857 16.8571 " />
<path d=" M 5.06667 18.0286 L 5.04762 17.5143 " />
<path d=" M 5.08572 18.419 L 5.06667 18.0286 " />
<path d=" M 5.11428 18.6952 L 5.08572 18.419 " />
<path d=" M 5.14286 18.8857 L 5.11428 18.6952 " />
<path d=" M 5.17143 18.981 L 5.14286 18.8857 " />
<path d=" M 5.2 19.0286 L 5.17143 18.981 " />
<path d=" M 5.21905 19.0762 L 5.2 19.0286 " />
<path d=" M 5.2381 19.1143 L 5.21905 19.0762 " />
<path d=" M 5.26667 19.219 L 5.25714 19.1905 " />
<path d=" M 5.25714 19.2381 L 5.26667 19.219 " />
<path d=" M 5.25714 19.2571 L 5.25714 19.2381 " />
<path d=" M 5.0381 19.3143 L 5.14286 19.2857 " />
<path d=" M 4.88572 19.3524 L 5.0381 19.3143 " />
<path d=" M 4.71428 19.3905 L 4.88572 19.3524 " />
<path d=" M 4.52381 19.4381 L 4.71428 19.3905 " />
<path d=" M 4.30476 19.4762 L 4.52381 19.4381 " />
<path d=" M 4.07619 19.5238 L 4.30476 19.4762 " />
<path d=" M 3.04762 19.7143 L 4.07619 19.5238 " />
<path d=" M 2.0381 19.8476 L 3.04762 19.7143 " />
<path d=" M 1.0381 19.9238 L 2.0381 19.8476 " />
<path d=" M 0.04762 19.9524 L 1.0381 19.9238 " />
<path d=" M -0.942856 19.9238 L 0.04762 19.9524 " />
<path d=" M -1.94286 19.8476 L -0.942856 19.9238 " />
<path d=" M -2.95238 19.7143 L -1.94286 19.8476 " />
<path d=" M -3.98095 19.5238 L -2.95238 19.7143 " />
<path d=" M -4.20952 19.4762 L -3.98095 19.5238 " />
<path d=" M -4.42857 19.4381 L -4.20952 19.4762 " />
<path d=" M -4.61905 19.3905 L -4.42857 19.4381 " />
<path d=" M -4.79048 19.3524 L -4.61905 19.3905 " />
<path d=" M -4.94286 19.3143 L -4.79048 19.3524 " />
<path d=" M -5.04762 19.2857 L -4.94286 19.3143 " />
<path d=" M -5.12381 19.2667 L -5.04762 19.2857 " />
<path d=" M -5.1619 19.2571 L -5.12381 19.2667 " />
<path d=" M -5.14286 19.1333 L -5.1619 19.181 " />
<path d=" M -5.13333 19.0857 L -5.14286 19.1333 " />
<path d=" M -5.10476 19.0381 L -5.13333 19.0857 " />
<path d=" M -5.08572 18.981 L -5.10476 19.0381 " />
<path d=" M -5.05714 18.9143 L -5.08572 18.981 " />
<path d=" M -5.00952 18.819 L -5.05714 18.9143 " />
<path d=" M -4.98095 18.6857 L -5.00952 18.819 " />
<path d=" M -4.95238 18.5238 L -4.98095 18.6857 " />
<path d=" M -4.93333 18.2952 L -4.95238 18.5238 " />
<path d=" M -4.92381 18 L -4.93333 18.2952 " />
<path d=" M -4.91428 17.6381 L -4.92381 18 " />
<path d=" M -4.90476 17.1714 L -4.91428 17.6381 " />
<path d=" M -5.11428 14.6571 L -4.90476 14.6 " />
<path d=" M -5.18095 14.6667 L -5.11428 14.6571 " />
<path d=" M -5.26667 14.6857 L -5.18095 14.6667 " />
<path d=" M -5.39048 14.7048 L -5.26667 14.6857 " />
<path d=" M -5.52381 14.7238 L -5.39048 14.7048 " />
<path d=" M -5.68572 14.7524 L -5.52381 14.7238 " />
<path d=" M -5.84762 14.7714 L -5.68572 14.7524 " />
<path d=" M -6.02857 14.7905 L -5.84762 14.7714 " />
<path d=" M -6.2 14.8095 L -6.02857 14.7905 " />
<path d=" M -6.95238 14.8571 L -6.2 14.8095 " />
<path d=" M -7.67619 14.8286 L -6.95238 14.8571 " />
<path d=" M -8.3619 14.7333 L -7.67619 14.8286 " />
<path d=" M -9.01905 14.5619 L -8.3619 14.7333 " />
<path d=" M -9.61905 14.3238 L -9.01905 14.5619 " />
<path d=" M -10.1619 14.0286 L -9.61905 14.3238 " />
<path d=" M -10.6381 13.6667 L -10.1619 14.0286 " />
<path d=" M -11.0381 13.2476 L -10.6381 13.6667 " />
<path d=" M -11.1143 13.1429 L -11.0381 13.2476 " />
<path d=" M -11.2 13.0095 L -11.1143 13.1429 " />
<path d=" M -11.3048 12.8381 L -11.2 13.0095 " />
<path d=" M -11.419 12.6476 L -11.3048 12.8381 " />
<path d=" M -11.5333 12.4286 L -11.419 12.6476 " />
<path d=" M -11.6571 12.2095 L -11.5333 12.4286 " />
<path d=" M -11.7714 11.981 L -11.6571 12.2095 " />
<path d=" M -11.8857 11.7429 L -11.7714 11.981 " />
<path d=" M -12.1048 11.3238 L -11.8857 11.7429 " />
<path d=" M -12.3333 10.9333 L -12.1048 11.3238 " />
<path d=" M -12.5714 10.5714 L -12.3333 10.9333 " />
<path d=" M -12.8286 10.2381 L -12.5714 10.5714 " />
<path d=" M -13.1048 9.93333 L -12.8286 10.2381 " />
<path d=" M -13.4095 9.6381 L -13.1048 9.93333 " />
<path d=" M -13.7333 9.3619 L -13.4095 9.6381 " />
<path d=" M -14.0952 9.09524 L -13.7333 9.3619 " />
<path d=" M -14.2095 9.00952 L -14.0952 9.09524 " />
<path d=" M -14.3143 8.92381 L -14.2095 9.00952 " />
<path d=" M -14.4 8.84762 L -14.3143 8.92381 " />
<path d=" M -14.4667 8.78095 L -14.4 8.84762 " />
<path d=" M -14.5238 8.70476 L -14.4667 8.78095 " />
<path d=" M -14.5619 8.6381 L -14.5238 8.70476 " />
<path d=" M -14.5905 8.57143 L -14.5619 8.6381 " />
<path d=" M -14.6 8.50476 L -14.5905 8.57143 " />
<path d=" M -14.6095 8.42857 L -14.6 8.50476 " />
<path d=" M -14.6 8.3619 L -14.6095 8.42857 " />
<path d=" M -14.5905 8.31428 L -14.6 8.3619 " />
<path d=" M -14.5619 8.27619 L -14.5905 8.31428 " />
<path d=" M -14.5048 8.2381 L -14.5619 8.27619 " />
<path d=" M -14.4381 8.2 L -14.5048 8.2381 " />
<path d=" M -14.3429 8.17143 L -14.4381 8.2 " />
<path d=" M -14.219 8.13333 L -14.3429 8.17143 " />
<path d=" M -14.1048 8.11428 L -14.219 8.13333 " />
<path d=" M -14 8.08572 L -14.1048 8.11428 " />
<path d=" M -13.8952 8.07619 L -14 8.08572 " />
<path d=" M -13.581 8.08572 L -13.6857 8.07619 " />
<path d=" M -13.4667 8.10476 L -13.581 8.08572 " />
<path d=" M -13.3333 8.13333 L -13.4667 8.10476 " />
<path d=" M -12.9333 8.24762 L -13.3333 8.13333 " />
<path d=" M -12.5524 8.4 L -12.9333 8.24762 " />
<path d=" M -12.2 8.59048 L -12.5524 8.4 " />
<path d=" M -11.8571 8.82857 L -12.2 8.59048 " />
<path d=" M -11.5333 9.10476 L -11.8571 8.82857 " />
<path d=" M -11.2095 9.44762 L -11.5333 9.10476 " />
<path d=" M -10.8952 9.8381 L -11.2095 9.44762 " />
<path d=" M -10.5714 10.2857 L -10.8952 9.8381 " />
<path d=" M -10.3524 10.6095 L -10.5714 10.2857 " />
<path d=" M -10.1333 10.8857 L -10.3524 10.6095 " />
<path d=" M -9.91428 11.1333 L -10.1333 10.8857 " />
<path d=" M -9.69524 11.3524 L -9.91428 11.1333 " />
<path d=" M -9.46667 11.5429 L -9.69524 11.3524 " />
<path d=" M -9.22857 11.7143 L -9.46667 11.5429 " />
<path d=" M -8.97143 11.8667 L -9.22857 11.7143 " />
<path d=" M -8.68572 12 L -8.97143 11.8667 " />
<path d=" M -8.31428 12.1429 L -8.68572 12 " />
<path d=" M -7.89524 12.2381 L -8.31428 12.1429 " />
<path d=" M -7.45714 12.2952 L -7.89524 12.2381 " />
<path d=" M -7 12.3143 L -7.45714 12.2952 " />
<path d=" M -6.53333 12.2857 L -7 12.3143 " />
<path d=" M -6.08572 12.219 L -6.53333 12.2857 " />
<path d=" M -5.64762 12.1048 L -6.08572 12.219 " />
<path d=" M -5.22857 11.9619 L -5.64762 12.1048 " />
<path d=" M -5.11428 11.9048 L -5.22857 11.9619 " />
<path d=" M -5.01905 11.8476 L -5.11428 11.9048 " />
<path d=" M -4.94286 11.8 L -5.01905 11.8476 " />
<path d=" M -4.88572 11.7333 L -4.94286 11.8 " />
<path d=" M -4.8381 11.6571 L -4.88572 11.7333 " />
<path d=" M -4.8 11.5619 L -4.8381 11.6571 " />
<path d=" M -4.77143 11.4286 L -4.8 11.5619 " />
<path d=" M -4.73333 11.2762 L -4.77143 11.4286 " />
<path d=" M -4.66667 11.0286 L -4.73333 11.2762 " />
<path d=" M -4.59048 10.781 L -4.66667 11.0286 " />
<path d=" M -4.48572 10.5238 L -4.59048 10.781 " />
<path d=" M -4.38095 10.2667 L -4.48572 10.5238 " />
<path d=" M -4.26667 10.0286 L -4.38095 10.2667 " />
<path d=" M -4.14286 9.80952 L -4.26667 10.0286 " />
<path d=" M -4.01905 9.61905 L -4.14286 9.80952 " />
<path d=" M -3.90476 9.45714 L -4.01905 9.61905 " />
<path d=" M -3.85714 9.39048 L -3.90476 9.45714 " />
<path d=" M -3.80952 9.34286 L -3.85714 9.39048 " />
<path d=" M -3.77143 9.28572 L -3.80952 9.34286 " />
<path d=" M -3.74286 9.2381 L -3.77143 9.28572 " />
<path d=" M -3.72381 9.19048 L -3.74286 9.2381 " />
<path d=" M -3.70476 9.1619 L -3.72381 9.19048 " />
<path d=" M -3.73333 9.10476 L -3.70476 9.11428 " />
<path d=" M -3.79048 9.08572 L -3.73333 9.10476 " />
<path d=" M -3.88572 9.06667 L -3.79048 9.08572 " />
<path d=" M -4 9.04762 L -3.88572 9.06667 " />
<path d=" M -4.13333 9.01905 L -4 9.04762 " />
<path d=" M -4.29524 8.99048 L -4.13333 9.01905 " />
<path d=" M -4.45714 8.97143 L -4.29524 8.99048 " />
<path d=" M -4.6381 8.94286 L -4.45714 8.97143 " />
<path d=" M -5.58095 8.77143 L -4.6381 8.94286 " />
<path d=" M -6.47619 8.53333 L -5.58095 8.77143 " />
<path d=" M -7.32381 8.24762 L -6.47619 8.53333 " />
<path d=" M -8.11428 7.89524 L -7.32381 8.24762 " />
<path d=" M -8.8381 7.50476 L -8.11428 7.89524 " />
<path d=" M -9.50476 7.05714 L -8.8381 7.50476 " />
<path d=" M -10.0952 6.5619 L -9.50476 7.05714 " />
<path d=" M -10.6 6.02857 L -10.0952 6.5619 " />
<path d=" M -11.0857 5.39048 L -10.6 6.02857 " />
<path d=" M -11.4952 4.69524 L -11.0857 5.39048 " />
<path d=" M -11.8476 3.94286 L -11.4952 4.69524 " />
<path d=" M -12.1429 3.13333 L -11.8476 3.94286 " />
<path d=" M -12.3619 2.27619 L -12.1429 3.13333 " />
<path d=" M -12.5238 1.35238 L -12.3619 2.27619 " />
<path d=" M -12.619 0.371428 L -12.5238 1.35238 " />
<path d=" M -12.6476 -0.666668 L -12.619 0.371428 " />
<path d=" M -12.6476 -1.06667 L -12.6476 -0.666668 " />
<path d=" M -12.6381 -1.40952 L -12.6476 -1.06667 " />
<path d=" M -12.6286 -1.70476 L -12.6381 -1.40952 " />
<path d=" M -12.6095 -1.9619 L -12.6286 -1.70476 " />
<path d=" M -12.581 -2.2 L -12.6095 -1.9619 " />
<path d=" M -12.5429 -2.40952 L -12.581 -2.2 " />
<path d=" M -12.4952 -2.62857 L -12.5429 -2.40952 " />
<path d=" M -12.4381 -2.84762 L -12.4952 -2.62857 " />
<path d=" M -12.3333 -3.21905 L -12.4381 -2.84762 " />
<path d=" M -12.2095 -3.59048 L -12.3333 -3.21905 " />
<path d=" M -12.0667 -3.95238 L -12.2095 -3.59048 " />
<path d=" M -11.9048 -4.30476 L -12.0667 -3.95238 " />
<path d=" M -11.7429 -4.64762 L -11.9048 -4.30476 " />
<path d=" M -11.5524 -4.98095 L -11.7429 -4.64762 " />
<path d=" M -11.3524 -5.30476 L -11.5524 -4.98095 " />
<path d=" M -11.1429 -5.61905 L -11.3524 -5.30476 " />
<path d=" M -10.6667 -6.28572 L -11.1429 -5.61905 " />
<path d=" M -10.8381 -6.95238 L -10.6667 -6.28572 " />
<path d=" M -10.9143 -7.34286 L -10.8381 -6.95238 " />
<path d=" M -10.9619 -7.80952 L -10.9143 -7.34286 " />
<path d=" M -10.9905 -8.31428 L -10.9619 -7.80952 " />
<path d=" M -10.981 -8.84762 L -10.9905 -8.31428 " />
<path d=" M -10.9524 -9.38095 L -10.981 -8.84762 " />
<path d=" M -10.8952 -9.89524 L -10.9524 -9.38095 " />
<path d=" M -10.819 -10.3619 L -10.8952 -9.89524 " />
<path d=" M -10.7143 -10.7619 L -10.819 -10.3619 " />
<path d=" M -10.6667 -10.8952 L -10.7143 -10.7619 " />
<path d=" M -10.6286 -11.0286 L -10.6667 -10.8952 " />
<path d=" M -10.581 -11.1524 L -10.6286 -11.0286 " />
<path d=" M -10.5333 -11.2667 L -10.581 -11.1524 " />
<path d=" M -10.4952 -11.3714 L -10.5333 -11.2667 " />
<path d=" M -10.4571 -11.4476 L -10.4952 -11.3714 " />
<path d=" M -10.4286 -11.5143 L -10.4571 -11.4476 " />
<path d=" M -10.4095 -11.5524 L -10.4286 -11.5143 " />
<path d=" M 19.9335 1.63019 L 20 8.53782e-18 " />
<path d=" M 19.7342 3.24952 L 19.9335 1.63019 " />
<path d=" M 19.4037 4.84723 L 19.7342 3.24952 " />
<path d=" M 18.9441 6.41269 L 19.4037 4.84723 " />
<path d=" M 18.3583 7.93547 L 18.9441 6.41269 " />
<path d=" M 17.6504 9.40544 L 18.3583 7.93547 " />
<path d=" M 16.8251 10.8128 L 17.6504 9.40544 " />
<path d=" M 15.8877 12.1482 L 16.8251 10.8128 " />
<path d=" M 14.8447 13.4028 L 15.8877 12.1482 " />
<path d=" M 13.7028 14.5682 L 14.8447 13.4028 " />
<path d=" M 12.4698 15.6366 L 13.7028 14.5682 " />
<path d=" M 11.1538 16.601 L 12.4698 15.6366 " />
<path d=" M 9.76352 17.4549 L 11.1538 16.601 " />
<path d=" M 8.3083 18.1926 L 9.76352 17.4549 " />
<path d=" M 6.79779 18.8093 L 8.3083 18.1926 " />
<path d=" M 5.24203 19.3008 L 6.79779 18.8093 " />
<path d=" M 3.6514 19.6639 L 5.24203 19.3008 " />
<path d=" M 2.03646 19.8961 L 3.6514 19.6639 " />
<path d=" M 0.407971 19.9958 L 2.03646 19.8961 " />
<path d=" M -1.22323 19.9626 L 0.407971 19.9958 " />
<path d=" M -2.8463 19.7964 L -1.22323 19.9626 " />
<path d=" M -4.45042 19.4986 L -2.8463 19.7964 " />
<path d=" M -6.02492 19.0709 L -4.45042 19.4986 " />
<path d=" M -7.55933 18.5164 L -6.02492 19.0709 " />
<path d=" M -9.04344 17.8386 L -7.55933 18.5164 " />
<path d=" M -10.4674 17.0421 L -9.04344 17.8386 " />
<path d=" M -11.8216 16.1322 L -10.4674 17.0421 " />
<path d=" M -13.0972 15.115 L -11.8216 16.1322 " />
<path d=" M -14.2856 13.9972 L -13.0972 15.115 " />
<path d=" M -15.379 12.7862 L -14.2856 13.9972 " />
<path d=" M -16.37 11.4901 L -15.379 12.7862 " />
<path d=" M -17.2521 10.1175 L -16.37 11.4901 " />
<path d=" M -18.0194 8.67767 L -17.2521 10.1175 " />
<path d=" M -18.6667 7.18005 L -18.0194 8.67767 " />
<path d=" M -19.1899 5.63465 L -18.6667 7.18005 " />
<path d=" M -19.5853 4.05175 L -19.1899 5.63465 " />
<path d=" M -19.8504 2.44189 L -19.5853 4.05175 " />
<path d=" M -19.9834 0.815772 L -19.8504 2.44189 " />
<path d=" M -19.9834 -0.815772 L -19.9834 0.815772 " />
<path d=" M -19.8504 -2.44189 L -19.9834 -0.815772 " />
<path d=" M -19.5853 -4.05175 L -19.8504 -2.44189 " />
<path d=" M -19.1899 -5.63465 L -19.5853 -4.05175 " />
<path d=" M -18.6667 -7.18005 L -19.1899 -5.63465 " />
<path d=" M -18.0194 -8.67767 L -18.6667 -7.18005 " />
<path d=" M -17.2521 -10.1175 L -18.0194 -8.67767 " />
<path d=" M -16.37 -11.4901 L -17.2521 -10.1175 " />
<path d=" M -15.379 -12.7862 L -16.37 -11.4901 " />
<path d=" M -14.2856 -13.9972 L -15.379 -12.7862 " />
<path d=" M -13.0972 -15.115 L -14.2856 -13.9972 " />
<path d=" M -11.8216 -16.1322 L -13.0972 -15.115 " />
<path d=" M -10.4674 -17.0421 L -11.8216 -16.1322 " />
<path d=" M -9.04344 -17.8386 L -10.4674 -17.0421 " />
<path d=" M -7.55933 -18.5164 L -9.04344 -17.8386 " />
<path d=" M -6.02492 -19.0709 L -7.55933 -18.5164 " />
<path d=" M -4.45042 -19.4986 L -6.02492 -19.0709 " />
<path d=" M -2.8463 -19.7964 L -4.45042 -19.4986 " />
<path d=" M -1.22323 -19.9626 L -2.8463 -19.7964 " />
<path d=" M 0.407971 -19.9958 L -1.22323 -19.9626 " />
<path d=" M 2.03646 -19.8961 L 0.407971 -19.9958 " />
<path d=" M 3.6514 -19.6639 L 2.03646 -19.8961 " />
<path d=" M 5.24203 -19.3008 L 3.6514 -19.6639 " />
<path d=" M 6.79779 -18.8093 L 5.24203 -19.3008 " />
<path d=" M 8.3083 -18.1926 L 6.79779 -18.8093 " />
<path d=" M 9.76352 -17.4549 L 8.3083 -18.1926 " />
<path d=" M 11.1538 -16.601 L 9.76352 -17.4549 " />
<path d=" M 12.4698 -15.6366 L 11.1538 -16.601 " />
<path d=" M 13.7028 -14.5682 L 12.4698 -15.6366 " />
<path d=" M 14.8447 -13.4028 L 13.7028 -14.5682 " />
<path d=" M 15.8877 -12.1482 L 14.8447 -13.4028 " />
<path d=" M 16.8251 -10.8128 L 15.8877 -12.1482 " />
<path d=" M 17.6504 -9.40544 L 16.8251 -10.8128 " />
<path d=" M 18.3583 -7.93547 L 17.6504 -9.40544 " />
<path d=" M 18.9441 -6.41269 L 18.3583 -7.93547 " />
<path d=" M 19.4037 -4.84723 L 18.9441 -6.41269 " />
<path d=" M 19.7342 -3.24952 L 19.4037 -4.84723 " />
<path d=" M 19.9335 -1.63019 L 19.7342 -3.24952 " />
<path d=" M 20 0 L 19.9335 -1.63019 " />
<path d=" M -23.3333 -18.8 L -22 -20 " />
<path d=" M 19.8289 2.61052 L 19.8472 2.3314 " />
<path d=" M 19.3185 5.17638 L 19.3425 5.05556 " />
<path d=" M 19.7869 2.82188 L 19.8289 2.61052 " />
<path d=" M 18.4776 7.65367 L 18.5592 7.41321 " />
<path d=" M 19.2338 5.42609 L 19.3185 5.17638 " />
<path d=" M 17.3205 10 L 17.4197 9.79895 " />
<path d=" M 18.4282 7.75382 L 18.4776 7.65367 " />
<path d=" M 15.8671 12.1752 L 15.8743 12.1644 " />
<path d=" M 17.1671 10.2295 L 17.3205 10 " />
<path d=" M 14.1421 14.1421 L 14.3284 13.9297 " />
<path d=" M 15.8331 12.214 L 15.8671 12.1752 " />
<path d=" M 12.1752 15.8671 L 12.2763 15.7784 " />
<path d=" M 13.9869 14.2783 L 14.1421 14.1421 " />
<path d=" M 10 17.3205 L 10.201 17.1862 " />
<path d=" M 11.9496 16.0178 L 12.1752 15.8671 " />
<path d=" M 7.65367 18.4776 L 7.86212 18.3748 " />
<path d=" M 9.91037 17.3647 L 10 17.3205 " />
<path d=" M 5.17638 19.3185 L 5.2009 19.3102 " />
<path d=" M 7.39644 18.5649 L 7.65367 18.4776 " />
<path d=" M 2.61052 19.8289 L 2.88956 19.7734 " />
<path d=" M 5.08343 19.337 L 5.17638 19.3185 " />
<path d=" M -4.01457e-13 20 L 0.145267 19.9905 " />
<path d=" M 2.41388 19.8418 L 2.61052 19.8289 " />
<path d=" M 2.61052 -19.8289 L 2.41388 -19.8418 " />
<path d=" M 0.145267 -19.9905 L -2.9843e-13 -20 " />
<path d=" M 5.17638 -19.3185 L 5.08343 -19.337 " />
<path d=" M 2.88956 -19.7734 L 2.61052 -19.8289 " />
<path d=" M 7.65367 -18.4776 L 7.39644 -18.5649 " />
<path d=" M 5.2009 -19.3102 L 5.17638 -19.3185 " />
<path d=" M 10 -17.3205 L 9.91037 -17.3647 " />
<path d=" M 7.86212 -18.3748 L 7.65367 -18.4776 " />
<path d=" M 12.1752 -15.8671 L 11.9496 -16.0178 " />
<path d=" M 10.201 -17.1862 L 10 -17.3205 " />
<path d=" M 14.1421 -14.1421 L 13.9869 -14.2783 " />
<path d=" M 12.2763 -15.7784 L 12.1752 -15.8671 " />
<path d=" M 15.8671 -12.1752 L 15.8331 -12.214 " />
<path d=" M 14.3284 -13.9297 L 14.1421 -14.1421 " />
<path d=" M 17.3205 -10 L 17.1671 -10.2295 " />
<path d=" M 15.8743 -12.1644 L 15.8671 -12.1752 " />
<path d=" M 18.4776 -7.65367 L 18.4282 -7.75382 " />
<path d=" M 17.4197 -9.79895 L 17.3205 -10 " />
<path d=" M 19.3185 -5.17638 L 19.2338 -5.42609 " />
<path d=" M 18.5592 -7.41321 L 18.4776 -7.65367 " />
<path d=" M 19.8289 -2.61052 L 19.7869 -2.82188 " />
<path d=" M 19.3425 -5.05556 L 19.3185 -5.17638 " />
<path d=" M 19.8472 -2.3314 L 19.8289 -2.61052 " />
<path d=" M 22 -20 L -2.98428e-13 -20 " />
<path d=" M -22 -20 L -22 20 " />
<path d=" M -2.98428e-13 -20 L -22 -20 " />
<path d=" M -2.72333 19.8137 L -2.58479 19.8232 " />
<path d=" M -0.260113 19.9822 L -4.01431e-13 20 " />
<path d=" M -5.39594 19.2583 L -5.13593 19.3124 " />
<path d=" M -2.76794 19.8044 L -2.72333 19.8137 " />
<path d=" M -7.96802 18.3442 L -7.82502 18.395 " />
<path d=" M -5.59386 19.188 L -5.39594 19.2583 " />
<path d=" M -10.3917 17.0884 L -10.2965 17.1377 " />
<path d=" M -8.20363 18.2221 L -7.96802 18.3442 " />
<path d=" M -12.6218 15.5142 L -12.4026 15.6689 " />
<path d=" M -10.4184 17.0695 L -10.3917 17.0884 " />
<path d=" M -14.6167 13.6511 L -14.4981 13.7619 " />
<path d=" M -12.7688 15.3769 L -12.6218 15.5142 " />
<path d=" M -16.3394 11.5336 L -16.2954 11.5876 " />
<path d=" M -14.7861 13.4428 L -14.6167 13.6511 " />
<path d=" M -17.7577 9.2013 L -17.6175 9.43194 " />
<path d=" M -16.3497 11.5167 L -16.3394 11.5336 " />
<path d=" M -18.8452 6.69759 L -18.7765 6.85587 " />
<path d=" M -17.8342 9.02515 L -17.7577 9.2013 " />
<path d=" M -19.5817 4.06912 L -19.5749 4.0934 " />
<path d=" M -18.9181 6.43745 L -18.8452 6.69759 " />
<path d=" M -19.9534 1.36485 L -19.9165 1.63294 " />
<path d=" M -19.5826 4.06256 L -19.5817 4.06912 " />
<path d=" M -19.9534 -1.36485 L -19.9534 -1.18237 " />
<path d=" M -19.9534 1.18237 L -19.9534 1.36485 " />
<path d=" M -19.5817 -4.06912 L -19.5826 -4.06256 " />
<path d=" M -19.9165 -1.63294 L -19.9534 -1.36485 " />
<path d=" M -18.8452 -6.69759 L -18.9181 -6.43745 " />
<path d=" M -19.5749 -4.0934 L -19.5817 -4.06912 " />
<path d=" M -17.7577 -9.2013 L -17.8342 -9.02515 " />
<path d=" M -18.7765 -6.85587 L -18.8452 -6.69759 " />
<path d=" M -16.3394 -11.5336 L -16.3497 -11.5167 " />
<path d=" M -17.6175 -9.43194 L -17.7577 -9.2013 " />
<path d=" M -14.6167 -13.6511 L -14.7861 -13.4428 " />
<path d=" M -16.2954 -11.5876 L -16.3394 -11.5336 " />
<path d=" M -12.6218 -15.5142 L -12.7688 -15.3769 " />
<path d=" M -14.4981 -13.7619 L -14.6167 -13.6511 " />
<path d=" M -10.3917 -17.0884 L -10.4184 -17.0695 " />
<path d=" M -12.4026 -15.6689 L -12.6218 -15.5142 " />
<path d=" M -7.96802 -18.3442 L -8.20363 -18.2221 " />
<path d=" M -10.2965 -17.1377 L -10.3917 -17.0884 " />
<path d=" M -5.39594 -19.2583 L -5.59386 -19.188 " />
<path d=" M -7.82502 -18.395 L -7.96802 -18.3442 " />
<path d=" M -2.72333 -19.8137 L -2.76794 -19.8044 " />
<path d=" M -5.13593 -19.3124 L -5.39594 -19.2583 " />
<path d=" M -2.98428e-13 -20 L -0.260113 -19.9822 " />
<path d=" M -2.58479 -19.8232 L -2.72333 -19.8137 " />
<path d=" M 22 20 L 22 -20 " />
<path d=" M 23.3333 -18.8 L 22 -20 " />
<path d=" M -24 -18.8 L -23.3333 -18.8 " />
<path d=" M -23.3333 -18.8 L -23.3333 18.8 " />
<path d=" M -23.3333 18.8 L -22 20 " />
<path d=" M -4.01457e-13 20 L 22 20 " />
<path d=" M -22 20 L -4.01457e-13 20 " />
<path d=" M 23.3333 18.8 L 22 20 " />
<path d=" M 23.3333 18.8 L 23.3333 -18.8 " />
<path d=" M 24 -18.8 L 23.3333 -18.8 " />
<path d=" M -24 -18.8 L -24 18.8 " />
<path d=" M 24 18.8 L 24 -18.8 " />
<path d=" M -24 18.8 L -23.3333 18.8 " />
<path d=" M 24 18.8 L 23.3333 18.8 " />
</g>
</g></g></g><text x="585" y="526" font-family="Helvetica,Arial,sans-serif" font-size="13" fill="#142c41" font-weight="bold" text-anchor="start">BOTTOM / REAL CAVITIES</text><g transform="translate(600.0,772) scale(5.5) "><g data-coordinate-system="screen" transform="scale(-1,1)"><g transform="translate(-24.0,-20.0)"><g fill="none" stroke="#142c41" stroke-opacity="1" stroke-width="0.18" stroke-linecap="butt" stroke-linejoin="miter" stroke-miterlimit="4">
<path d=" M 23.3333 -18.8 L 22 -20 " />
<path d=" M -22 -20 L 2.98428e-13 -20 " />
<path d=" M 2.98428e-13 -20 L 22 -20 " />
<path d=" M -23.3333 -18.8 L -22 -20 " />
<path d=" M 23.3333 18.8 L 22 20 " />
<path d=" M 4.01457e-13 20 L -22 20 " />
<path d=" M 22 20 L 4.01457e-13 20 " />
<path d=" M -23.3333 18.8 L -22 20 " />
<path d=" M 24 -18.8 L 24 18.8 " />
<path d=" M -24 -18.8 L 24 -18.8 " />
<path d=" M -24 18.8 L -24 -18.8 " />
<path d=" M 24 18.8 L -24 18.8 " />
</g>
</g></g></g><text x="908" y="196" font-family="Helvetica,Arial,sans-serif" font-size="10" fill="#587085" font-weight="normal" text-anchor="start">Kind: front_logo</text><text x="908" y="219" font-family="Helvetica,Arial,sans-serif" font-size="10" fill="#587085" font-weight="normal" text-anchor="start">STL: NP3-LOGO-C.stl</text><text x="908" y="242" font-family="Helvetica,Arial,sans-serif" font-size="10" fill="#587085" font-weight="normal" text-anchor="start">STL units: mm / scale 100%</text><text x="908" y="265" font-family="Helvetica,Arial,sans-serif" font-size="10" fill="#587085" font-weight="normal" text-anchor="start">Flat rear on bed / relief up</text><text x="908" y="288" font-family="Helvetica,Arial,sans-serif" font-size="10" fill="#587085" font-weight="normal" text-anchor="start">Carrier 2.40; side taper 2.00</text><text x="908" y="311" font-family="Helvetica,Arial,sans-serif" font-size="10" fill="#587085" font-weight="normal" text-anchor="start">Black to white after 2.80</text><text x="908" y="334" font-family="Helvetica,Arial,sans-serif" font-size="10" fill="#587085" font-weight="normal" text-anchor="start">White relief: 0.80; do not scale</text><text x="908" y="357" font-family="Helvetica,Arial,sans-serif" font-size="10" fill="#587085" font-weight="normal" text-anchor="start">Overall installed Z: 4.00 .. 44.00</text><line x1="42" y1="801" x2="1158" y2="801" stroke="#c5d3df" stroke-width="1"/><text x="42" y="824" font-family="Helvetica,Arial,sans-serif" font-size="11" fill="#587085" font-weight="normal" text-anchor="start">UNITS mm | Fixed 8 mm pitch | Physical fit / strength / stability NOT tested</text><text x="1158" y="824" font-family="Helvetica,Arial,sans-serif" font-size="11" fill="#587085" font-weight="normal" text-anchor="end">Do not scale STL. Calibrate male + female coupons first.</text></svg>